<?xml version="1.0" standalone="no"?>
<!DOCTYPE svg PUBLIC "-//W3C//DTD SVG 20010904//EN"
 "http://www.w3.org/TR/2001/REC-SVG-20010904/DTD/svg10.dtd">
<svg version="1.0" xmlns="http://www.w3.org/2000/svg"
 width="16.000000pt" height="16.000000pt" viewBox="0 0 16.000000 16.000000"
 preserveAspectRatio="xMidYMid meet">
<metadata>
Created by potrace 1.11, written by Peter Selinger 2001-2013
</metadata>
<g transform="translate(0.000000,16.000000) scale(0.006154,-0.006154)"
fill="#000000" stroke="none">
<path d="M735 1976 c-245 -56 -412 -220 -472 -461 -23 -96 -23 -314 0 -410 68
-274 269 -439 565 -464 171 -15 325 10 488 81 l54 23 0 158 c0 132 -2 157 -15
157 -8 0 -52 -27 -96 -60 -119 -87 -170 -105 -299 -104 -124 0 -173 18 -249
89 -152 143 -161 483 -16 644 84 93 242 134 370 96 78 -22 120 -44 200 -105
105 -80 105 -80 105 109 l0 159 -72 30 c-129 53 -182 64 -348 68 -108 2 -173
-1 -215 -10z"/>
<path d="M1540 1855 l0 -115 105 0 105 0 0 -425 0 -425 -105 0 -105 0 0 -115
0 -115 380 0 380 0 0 115 0 115 -105 0 -105 0 0 425 0 425 105 0 105 0 0 115
0 115 -380 0 -380 0 0 -115z"/>
</g>
</svg>
